<svg id="_11510108291606062171" data-name="11510108291606062171" xmlns="http://www.w3.org/2000/svg" width="22.925" height="22.925" viewBox="0 0 22.925 22.925">
  <g id="Group_69147" data-name="Group 69147">
    <g id="Group_69146" data-name="Group 69146">
      <path id="Path_39424" data-name="Path 39424" d="M11.462,0A11.462,11.462,0,1,0,22.925,11.462,11.45,11.45,0,0,0,11.462,0Z" fill="#29d331"/>
    </g>
  </g>
  <g id="Group_69149" data-name="Group 69149" transform="translate(6.119 6.155)">
    <g id="Group_69148" data-name="Group 69148">
      <path id="Path_39425" data-name="Path 39425" d="M24.775,18.514c1.039,1.54-.215,4.764-2.9,7.486s-5.946,3.94-7.486,2.9a.494.494,0,0,1-.143-.107l-1.039-1.039a.9.9,0,0,1,.072-1.254L15.1,24.711a.9.9,0,0,1,1.254-.072l1.218,1.218a.375.375,0,0,0,.466.036,13.732,13.732,0,0,0,1.97-1.648,16.012,16.012,0,0,0,1.648-1.97.335.335,0,0,0-.036-.466l-1.218-1.218a.9.9,0,0,1,.072-1.254l1.863-1.863a.9.9,0,0,1,1.254-.072l1.039,1.039C24.7,18.407,24.74,18.479,24.775,18.514Z" transform="translate(-12.985 -17.183)" fill="#fff"/>
    </g>
  </g>
  <g id="Group_69151" data-name="Group 69151" transform="translate(8.203 7.845)">
    <g id="Group_69150" data-name="Group 69150">
      <path id="Path_39426" data-name="Path 39426" d="M31.1,25.482h1.075a2.515,2.515,0,0,1,2.507-2.507V21.9A3.593,3.593,0,0,0,31.1,25.482Z" transform="translate(-31.1 -21.9)" fill="#fff"/>
    </g>
  </g>
  <g id="Group_69153" data-name="Group 69153" transform="translate(5.91 5.552)">
    <g id="Group_69152" data-name="Group 69152">
      <path id="Path_39427" data-name="Path 39427" d="M30,21.768h1.075a5.2,5.2,0,0,1,5.194-5.194V15.5A6.3,6.3,0,0,0,30,21.768Z" transform="translate(-30 -15.5)" fill="#fff"/>
    </g>
  </g>
</svg>
