<svg id="Cargo-container-crane-logistics" xmlns="http://www.w3.org/2000/svg" width="23" height="23" viewBox="0 0 23 23">
  <rect id="Rectangle_3583" data-name="Rectangle 3583" width="8" height="3" transform="translate(8 4)" fill="#003f8a"/>
  <rect id="Rectangle_3584" data-name="Rectangle 3584" width="23" height="1" transform="translate(0 9)" fill="#ff9811"/>
  <rect id="Rectangle_3585" data-name="Rectangle 3585" width="2" height="3" transform="translate(11)" fill="#e0e0e2"/>
  <rect id="Rectangle_3586" data-name="Rectangle 3586" width="1" height="2" transform="translate(2 7)" fill="#57565c"/>
  <rect id="Rectangle_3587" data-name="Rectangle 3587" width="2" height="2" transform="translate(20 7)" fill="#57565c"/>
  <path id="Path_39432" data-name="Path 39432" d="M4,17v1.539h6.156L9.771,17Z" transform="translate(12.46 -11.614)" fill="#e0e0e2"/>
  <path id="Path_39433" data-name="Path 39433" d="M44,18.539h6.156V17H44.385Z" transform="translate(-42.929 -11.614)" fill="#e0e0e2"/>
  <rect id="Rectangle_3588" data-name="Rectangle 3588" width="1" height="4" transform="translate(7 4)" fill="#3e3d42"/>
  <rect id="Rectangle_3589" data-name="Rectangle 3589" width="4" height="3" transform="translate(10 3)" fill="#3e3d42"/>
  <rect id="Rectangle_3590" data-name="Rectangle 3590" width="1" height="4" transform="translate(16 4)" fill="#3e3d42"/>
  <rect id="Rectangle_3591" data-name="Rectangle 3591" width="23" height="2" transform="translate(0 21)" fill="#ff9811"/>
  <rect id="Rectangle_3592" data-name="Rectangle 3592" width="21" height="11" transform="translate(1 10)" fill="#ffda44"/>
  <rect id="Rectangle_3593" data-name="Rectangle 3593" width="1" height="9" transform="translate(20 11)" fill="#ee8700"/>
  <rect id="Rectangle_3594" data-name="Rectangle 3594" height="9" transform="translate(19 11)" fill="#ee8700"/>
  <rect id="Rectangle_3595" data-name="Rectangle 3595" height="9" transform="translate(17 11)" fill="#ee8700"/>
  <rect id="Rectangle_3596" data-name="Rectangle 3596" width="1" height="9" transform="translate(15 11)" fill="#ee8700"/>
  <rect id="Rectangle_3597" data-name="Rectangle 3597" width="1" height="9" transform="translate(13 11)" fill="#ee8700"/>
  <rect id="Rectangle_3598" data-name="Rectangle 3598" height="9" transform="translate(11 11)" fill="#ee8700"/>
  <rect id="Rectangle_3599" data-name="Rectangle 3599" width="2" height="9" transform="translate(8 11)" fill="#ee8700"/>
  <rect id="Rectangle_3600" data-name="Rectangle 3600" width="1" height="9" transform="translate(6 11)" fill="#ee8700"/>
  <rect id="Rectangle_3601" data-name="Rectangle 3601" width="1" height="9" transform="translate(4 11)" fill="#ee8700"/>
  <rect id="Rectangle_3602" data-name="Rectangle 3602" width="1" height="9" transform="translate(2 11)" fill="#ee8700"/>
  <rect id="Rectangle_3603" data-name="Rectangle 3603" width="2" transform="translate(20 7)" fill="#2d2d30"/>
  <rect id="Rectangle_3604" data-name="Rectangle 3604" width="1" transform="translate(2 7)" fill="#2d2d30"/>
  <rect id="Rectangle_3605" data-name="Rectangle 3605" width="4" transform="translate(2 6)" fill="#fff"/>
  <rect id="Rectangle_3606" data-name="Rectangle 3606" width="4" transform="translate(18 6)" fill="#fff"/>
  <rect id="Rectangle_3607" data-name="Rectangle 3607" width="2" height="1" rx="0.5" transform="translate(12 3)" fill="#57565c"/>
  <path id="Path_39434" data-name="Path 39434" d="M30.385,4h0A.385.385,0,0,0,30,4.385V6.308h.769V4.385A.385.385,0,0,0,30.385,4Z" transform="translate(-18.157 -3.615)" fill="#fff"/>
  <rect id="Rectangle_3608" data-name="Rectangle 3608" width="21" height="1" transform="translate(1 10)" fill="#bf720d"/>
</svg>
