<svg xmlns="http://www.w3.org/2000/svg" width="19.13" height="22.612" viewBox="0 0 19.13 22.612">
  <g id="Driver" transform="translate(-63.528 -27.792)">
    <path id="Path_39462" data-name="Path 39462" d="M78.4,42.431H75.813v-.771a4.548,4.548,0,0,0,.539-.478h.871a2.047,2.047,0,0,0,2.045-2.045v-4.97A6.175,6.175,0,0,0,72.8,28a6.25,6.25,0,0,0-5.877,6.331v4.806a2.047,2.047,0,0,0,2.045,2.045h.871a4.557,4.557,0,0,0,.539.478v.771H67.786a3.9,3.9,0,0,0-4.057,3.7v3.681a.39.39,0,1,0,.779,0V46.134a3.119,3.119,0,0,1,3.278-2.923H70.4a2.722,2.722,0,0,0,2.3,2.3v4.3a.39.39,0,1,0,.779,0v-4.3a2.722,2.722,0,0,0,2.3-2.3H78.4a3.119,3.119,0,0,1,3.278,2.923v3.681a.39.39,0,1,0,.779,0V46.134A3.9,3.9,0,0,0,78.4,42.431ZM69.353,38.06V35.4a5.943,5.943,0,0,0,7.48,0V38.06a3.74,3.74,0,1,1-7.48,0Zm.413-3.339h6.654a5.144,5.144,0,0,1-6.654,0Zm-.8,5.682A1.267,1.267,0,0,1,67.7,39.138V34.332a5.472,5.472,0,0,1,5.134-5.553,5.4,5.4,0,0,1,5.657,5.389v4.97A1.267,1.267,0,0,1,77.223,40.4H76.95a4.486,4.486,0,0,0,.663-2.344V34.332s0,0,0-.007a.387.387,0,0,0-.025-.126c0-.011-.008-.022-.013-.033s-.006-.018-.011-.027a.389.389,0,0,0-.063-.083l0,0a.387.387,0,0,0-.107-.072l-.031-.013a.385.385,0,0,0-.135-.027h-8.26a.385.385,0,0,0-.135.027l-.031.013a.386.386,0,0,0-.107.072l0,0a.388.388,0,0,0-.063.083c0,.008-.007.018-.011.027s-.009.021-.013.033a.387.387,0,0,0-.025.126s0,0,0,.007V38.06a4.485,4.485,0,0,0,.663,2.344Zm4.13,4.358a1.943,1.943,0,0,1-1.94-1.941v-.686a4.462,4.462,0,0,0,3.881,0v.685h0a1.943,1.943,0,0,1-1.94,1.94Z" transform="translate(0 0)" fill="currentColor" stroke="currentColor" stroke-width="0.4"/>
  </g>
</svg>
