<svg id="Group_93" data-name="Group 93" xmlns="http://www.w3.org/2000/svg" width="22.421" height="22.421" viewBox="0 0 22.421 22.421">
  <g id="facebook_48px">
    <path id="Path_2649" data-name="Path 2649" d="M28.421,25.307a3.114,3.114,0,0,1-3.114,3.114H9.114A3.114,3.114,0,0,1,6,25.307V9.114A3.114,3.114,0,0,1,9.114,6H25.307a3.114,3.114,0,0,1,3.114,3.114Z" transform="translate(-6 -6)" fill="#3f51b5"/>
    <path id="Path_2650" data-name="Path 2650" d="M30.08,20.474h-2.1v8.1H24.868v-8.1H23V17.983h1.868v-1.5c0-2.185.909-3.482,3.483-3.482h2.123v2.491H29.049c-1,0-1.067.374-1.067,1.073v1.418h2.491Z" transform="translate(-12.412 -8.64)" fill="#fff"/>
  </g>
</svg>
