<svg xmlns="http://www.w3.org/2000/svg" width="24.33" height="18.248" viewBox="0 0 24.33 18.248">
  <g id="_16983312581574338606" data-name="16983312581574338606" transform="translate(0 -64)">
    <rect id="Rectangle_3582" data-name="Rectangle 3582" width="17.972" height="17.972" transform="translate(2.765 64)" fill="#eceff1"/>
    <path id="Path_39430" data-name="Path 39430" d="M256,155.691l9.124,7.2V148.672Z" transform="translate(-243.835 -80.648)" fill="#cfd8dc"/>
    <path id="Path_39431" data-name="Path 39431" d="M22.049,64h-.76l-9.124,7.2L3.041,64h-.76A2.282,2.282,0,0,0,0,66.281V79.967a2.282,2.282,0,0,0,2.281,2.281h.76V68.024l9.124,7.018,9.124-7.019V82.247h.76a2.282,2.282,0,0,0,2.281-2.281V66.281A2.282,2.282,0,0,0,22.049,64Z" fill="#f44336"/>
  </g>
</svg>
