<svg xmlns="http://www.w3.org/2000/svg" width="20" height="19.987" viewBox="0 0 20 19.987">
  <g id="_9452380391557740365" data-name="9452380391557740365" transform="translate(-1 -1029.4)">
    <path id="Path_22319" data-name="Path 22319" d="M21,1045.207a4.9,4.9,0,0,1-.142,1,4.588,4.588,0,0,1-.3.909c-.2.545-.777,1-1.732,1.544a5.856,5.856,0,0,1-2.643.727h-.752a2.245,2.245,0,0,0-.81-.182,3.144,3.144,0,0,1-.681-.273,2.3,2.3,0,0,1-.781-.273c-.379-.182-.61-.182-.7-.273a10.143,10.143,0,0,1-2.486-1.181,20.666,20.666,0,0,1-3.765-3,25.779,25.779,0,0,1-3.054-3.816,13.038,13.038,0,0,1-1.179-2.453c-.028-.091-.114-.363-.256-.727s-.241-.636-.3-.818c-.047-.091-.114-.363-.2-.636a5.083,5.083,0,0,1-.185-.818,6.228,6.228,0,0,1-.043-.727,5.172,5.172,0,0,1,.724-2.635,4.346,4.346,0,0,1,1.506-1.817,7.19,7.19,0,0,1,.966-.273A4.441,4.441,0,0,1,5.2,1029.4h.3a3.033,3.033,0,0,1,.753,1.09c.1.182.246.454.426.727.18.363.346.636.5.908s.3.545.44.818c.028,0,.109.091.241.363.142.182.246.363.313.454a1.125,1.125,0,0,1,.1.454c0,.182-.137.363-.412.727a4.117,4.117,0,0,1-.881.727c-.313.272-.606.454-.881.727a1.206,1.206,0,0,0-.4.727.586.586,0,0,0,.071.273q.071.272.114.273c.038.091.1.182.2.363a1.669,1.669,0,0,0,.171.273,15.2,15.2,0,0,0,2.471,3.361,15.705,15.705,0,0,0,3.338,2.453c.019,0,.109.091.27.182a1.316,1.316,0,0,0,.341.182c.066,0,.162.091.284.091a.515.515,0,0,0,.327.091.965.965,0,0,0,.653-.363,5.838,5.838,0,0,0,.753-.909c.236-.273.5-.636.781-.908a1.061,1.061,0,0,1,.71-.363.643.643,0,0,1,.4.091,4.231,4.231,0,0,0,.511.273,1.228,1.228,0,0,0,.355.273c.237.182.488.273.753.454s.577.273.908.454.588.363.768.454a4.352,4.352,0,0,1,1.079.727,1.128,1.128,0,0,1,.043.363" transform="translate(0)" fill="#e74c3c"/>
    <path id="Path_22320" data-name="Path 22320" d="M1.2,4.75A5.089,5.089,0,0,0,1,6.141a6.284,6.284,0,0,0,.057.738,7.148,7.148,0,0,0,.17.823c.085.3.151.53.2.681s.17.416.312.795.227.6.256.681a12.966,12.966,0,0,0,1.164,2.5,21.473,21.473,0,0,0,3.066,3.747,21.47,21.47,0,0,0,3.747,3.066,13.03,13.03,0,0,0,2.5,1.193c.085.028.3.113.681.255s.653.227.795.283.378.114.681.2a7.5,7.5,0,0,0,.795.2,6.888,6.888,0,0,0,.767.028,5.473,5.473,0,0,0,2.64-.71,3.8,3.8,0,0,0,1.732-1.505,5.815,5.815,0,0,0,.284-.965,4.907,4.907,0,0,0,.142-1.022.95.95,0,0,0-.028-.313,1.183,1.183,0,0,0-.454-.4,4.011,4.011,0,0,1-1.675,1.419,5.52,5.52,0,0,1-2.64.739,6.632,6.632,0,0,1-.767-.057,6.785,6.785,0,0,1-.795-.17c-.3-.085-.53-.152-.681-.2s-.416-.17-.795-.313-.6-.227-.681-.255a12.939,12.939,0,0,1-2.5-1.164,21.47,21.47,0,0,1-3.747-3.066A21.583,21.583,0,0,1,3.158,9.576,12.67,12.67,0,0,1,1.994,7.106c-.028-.085-.113-.331-.256-.71s-.255-.624-.312-.766-.114-.378-.2-.681c-.02-.072-.011-.13-.028-.2Z" transform="translate(0 1028.057)" fill="#c0392b"/>
  </g>
</svg>
