<svg id="_11510108291606062171" data-name="11510108291606062171" xmlns="http://www.w3.org/2000/svg" width="22.925" height="22.925" viewBox="0 0 22.925 22.925">
  <g id="Group_69147" data-name="Group 69147">
    <g id="Group_69146" data-name="Group 69146">
      <path id="Path_39424" data-name="Path 39424" d="M11.462,22.925A11.462,11.462,0,1,0,0,11.462,11.45,11.45,0,0,0,11.462,22.925Z" fill="#d32929"/>
    </g>
  </g>
  <g id="Group_69149" data-name="Group 69149" transform="translate(5.385 5.418)">
    <g id="Group_69148" data-name="Group 69148">
      <path id="Path_39425" data-name="Path 39425" d="M13.348,27.939c-1.039-1.54.215-4.764,2.9-7.486s5.946-3.94,7.486-2.9a.494.494,0,0,1,.143.107L24.918,18.7a.9.9,0,0,1-.072,1.254L23.02,21.742a.9.9,0,0,1-1.254.072L20.548,20.6a.375.375,0,0,0-.466-.036,13.732,13.732,0,0,0-1.97,1.648,16.012,16.012,0,0,0-1.648,1.97.335.335,0,0,0,.036.466l1.218,1.218a.9.9,0,0,1-.072,1.254l-1.863,1.863a.9.9,0,0,1-1.254.072l-1.039-1.039C13.42,28.047,13.384,27.975,13.348,27.939Z" transform="translate(-12.985 -17.183)" fill="#fff"/>
    </g>
  </g>
</svg>
