<svg xmlns="http://www.w3.org/2000/svg" width="14.396" height="20.155" viewBox="0 0 14.396 20.155">
  <g id="User" transform="translate(-6 -2)">
    <path id="Path_39463" data-name="Path 39463" d="M16.8,25.8H9.6A3.6,3.6,0,0,1,6,22.2v-.72A6.478,6.478,0,0,1,12.478,15h1.44A6.478,6.478,0,0,1,20.4,21.478v.72A3.6,3.6,0,0,1,16.8,25.8ZM12.478,16.44A5.039,5.039,0,0,0,7.44,21.478v.72A2.159,2.159,0,0,0,9.6,24.358h7.2A2.159,2.159,0,0,0,18.957,22.2v-.72a5.039,5.039,0,0,0-5.039-5.039Z" transform="translate(0 -3.642)" fill="currentColor"/>
    <path id="Path_39464" data-name="Path 39464" d="M14.319,10.638a4.319,4.319,0,1,1,4.319-4.319,4.319,4.319,0,0,1-4.319,4.319Zm0-7.2A2.879,2.879,0,1,0,17.2,6.319,2.879,2.879,0,0,0,14.319,3.44Z" transform="translate(-1.121)" fill="currentColor"/>
  </g>
</svg>
